<?xml version="1.0" encoding="UTF-8"?>
<svg width="48px" height="48px" viewBox="0 0 48 48" version="1.1" xmlns="http://www.w3.org/2000/svg" xmlns:xlink="http://www.w3.org/1999/xlink">
    <title>github-48</title>
    <g id="页面-1" stroke="none" stroke-width="1" fill="none" fill-rule="evenodd">
        <g id="画板" transform="translate(-325.000000, -87.000000)">
            <g id="github-48" transform="translate(325.000000, 87.000000)">
                <polygon id="矩形备份-2" fill="#D8D8D8" opacity="0" points="0 0 48 0 48 48 0 48"></polygon>
                <g id="github" transform="translate(4.500000, 5.000000)" fill="#333333">
                    <path d="M19.5,0 C8.7321,0 0,8.72344063 0,19.4806624 C0,28.0872191 5.5887,35.3885714 13.338,37.9639149 C14.313,38.143137 14.6679,37.5392365 14.6679,37.024947 C14.6679,36.5613072 14.6523,35.3379216 14.6406,33.7132344 C9.2157,34.8898664 8.073,31.1028256 8.073,31.1028256 C7.1877,28.850861 5.9085,28.2547528 5.9085,28.2547528 C4.1379,27.0469517 6.0411,27.0703285 6.0411,27.0703285 C7.9989,27.2066931 9.0285,29.0768367 9.0285,29.0768367 C10.7679,32.0534819 13.5915,31.1924367 14.703,30.6937317 C14.8785,29.4352809 15.3855,28.5781318 15.9393,28.0911152 C11.6103,27.6002025 7.0551,25.9287617 7.0551,18.4637718 C7.0551,16.3364835 7.8156,14.5988084 9.0636,13.235162 C8.8647,12.7442494 8.1939,10.7611179 9.2547,8.08057877 C9.2547,8.08057877 10.8927,7.55849702 14.6172,10.0792947 C16.1733,9.64682403 17.8425,9.43253674 19.5,9.42474448 C21.1575,9.43253674 22.8228,9.64682403 24.3828,10.0792947 C28.1073,7.55849702 29.7414,8.08057877 29.7414,8.08057877 C30.8061,10.7611179 30.1353,12.7442494 29.9364,13.235162 C31.1844,14.5988084 31.941,16.3364835 31.941,18.4637718 C31.941,25.9482423 27.3819,27.5924103 23.0373,28.0755307 C23.7393,28.6755351 24.3594,29.8677516 24.3594,31.6833494 C24.3594,34.2859659 24.336,36.3898774 24.336,37.0288431 C24.336,37.5509249 24.687,38.1548254 25.6776,37.9639149 C33.4191,35.3846752 39,28.0872191 39,19.4806624 C39,8.72344063 30.2679,0 19.5,0 Z" id="路径"></path>
                </g>
            </g>
        </g>
    </g>
</svg>