<?xml version="1.0" encoding="UTF-8"?>
<svg width="24px" height="24px" viewBox="0 0 24 24" version="1.1" xmlns="http://www.w3.org/2000/svg" xmlns:xlink="http://www.w3.org/1999/xlink">
    <title>github-24</title>
    <g id="页面-1" stroke="none" stroke-width="1" fill="none" fill-rule="evenodd">
        <g id="画板" transform="translate(-325.000000, -223.000000)">
            <g id="github-24" transform="translate(325.000000, 223.000000)">
                <rect id="矩形备份-10" fill="#D8D8D8" opacity="0" x="0" y="0" width="24" height="24"></rect>
                <g id="github备份-2" transform="translate(2.000000, 2.500000)" fill="#333333">
                    <path d="M9.75,0 C4.36605,0 0,4.36172032 0,9.74033121 C0,14.0436095 2.79435,17.6942857 6.669,18.9819575 C7.1565,19.0715685 7.33395,18.7696182 7.33395,18.5124735 C7.33395,18.2806536 7.32615,17.6689608 7.3203,16.8566172 C4.60785,17.4449332 4.0365,15.5514128 4.0365,15.5514128 C3.59385,14.4254305 2.95425,14.1273764 2.95425,14.1273764 C2.06895,13.5234759 3.02055,13.5351643 3.02055,13.5351643 C3.99945,13.6033466 4.51425,14.5384184 4.51425,14.5384184 C5.38395,16.026741 6.79575,15.5962183 7.3515,15.3468659 C7.43925,14.7176405 7.69275,14.2890659 7.96965,14.0455576 C5.80515,13.8001013 3.52755,12.9643808 3.52755,9.23188592 C3.52755,8.16824175 3.9078,7.29940421 4.5318,6.61758102 C4.43235,6.37212468 4.09695,5.38055896 4.62735,4.04028939 C4.62735,4.04028939 5.44635,3.77924851 7.3086,5.03964737 C8.08665,4.82341202 8.92125,4.71626837 9.75,4.71237224 C10.57875,4.71626837 11.4114,4.82341202 12.1914,5.03964737 C14.05365,3.77924851 14.8707,4.04028939 14.8707,4.04028939 C15.40305,5.38055896 15.06765,6.37212468 14.9682,6.61758102 C15.5922,7.29940421 15.9705,8.16824175 15.9705,9.23188592 C15.9705,12.9741212 13.69095,13.7962051 11.51865,14.0377653 C11.86965,14.3377675 12.1797,14.9338758 12.1797,15.8416747 C12.1797,17.1429829 12.168,18.1949387 12.168,18.5144216 C12.168,18.7754624 12.3435,19.0774127 12.8388,18.9819575 C16.70955,17.6923376 19.5,14.0436095 19.5,9.74033121 C19.5,4.36172032 15.13395,0 9.75,0 Z" id="路径"></path>
                </g>
            </g>
        </g>
    </g>
</svg>