<?xml version="1.0" encoding="UTF-8"?>
<svg width="16px" height="16px" viewBox="0 0 16 16" version="1.1" xmlns="http://www.w3.org/2000/svg" xmlns:xlink="http://www.w3.org/1999/xlink">
    <title>github-16</title>
    <g id="页面-1" stroke="none" stroke-width="1" fill="none" fill-rule="evenodd">
        <g id="画板" transform="translate(-325.000000, -281.000000)">
            <g id="github-16" transform="translate(325.000000, 281.000000)">
                <rect id="矩形备份-14" fill="#D8D8D8" opacity="0" x="0" y="0" width="16" height="16"></rect>
                <g id="github备份-3" transform="translate(1.500000, 1.500000)" fill="#333333">
                    <path d="M6.5,0 C2.9107,0 0,2.90781354 0,6.49355414 C0,9.36240636 1.8629,11.7961905 4.446,12.6546383 C4.771,12.714379 4.8893,12.5130788 4.8893,12.341649 C4.8893,12.1871024 4.8841,11.7793072 4.8802,11.2377448 C3.0719,11.6299555 2.691,10.3676085 2.691,10.3676085 C2.3959,9.61695368 1.9695,9.41825093 1.9695,9.41825093 C1.3793,9.01565057 2.0137,9.02344283 2.0137,9.02344283 C2.6663,9.06889771 3.0095,9.69227891 3.0095,9.69227891 C3.5893,10.684494 4.5305,10.3974789 4.901,10.2312439 C4.9595,9.81176031 5.1285,9.52604392 5.3131,9.36370507 C3.8701,9.20006751 2.3517,8.64292056 2.3517,6.15459061 C2.3517,5.4454945 2.6052,4.86626947 3.0212,4.41172068 C2.9549,4.24808312 2.7313,3.58703931 3.0849,2.69352626 C3.0849,2.69352626 3.6309,2.51949901 4.8724,3.35976491 C5.3911,3.21560801 5.9475,3.14417891 6.5,3.14158149 C7.0525,3.14417891 7.6076,3.21560801 8.1276,3.35976491 C9.3691,2.51949901 9.9138,2.69352626 9.9138,2.69352626 C10.2687,3.58703931 10.0451,4.24808312 9.9788,4.41172068 C10.3948,4.86626947 10.647,5.4454945 10.647,6.15459061 C10.647,8.64941412 9.1273,9.19747009 7.6791,9.35851023 C7.9131,9.5585117 8.1198,9.95591721 8.1198,10.5611165 C8.1198,11.4286553 8.112,12.1299591 8.112,12.3429477 C8.112,12.516975 8.229,12.7182751 8.5592,12.6546383 C11.1397,11.7948917 13,9.36240636 13,6.49355414 C13,2.90781354 10.0893,0 6.5,0 Z" id="路径"></path>
                </g>
            </g>
        </g>
    </g>
</svg>