<?xml version="1.0" encoding="UTF-8"?>
<svg width="32px" height="32px" viewBox="0 0 32 32" version="1.1" xmlns="http://www.w3.org/2000/svg" xmlns:xlink="http://www.w3.org/1999/xlink">
    <title>github-32</title>
    <g id="页面-1" stroke="none" stroke-width="1" fill="none" fill-rule="evenodd">
        <g id="画板" transform="translate(-325.000000, -161.000000)">
            <g id="github-32" transform="translate(325.000000, 161.000000)">
                <rect id="矩形备份-6" fill="#D8D8D8" opacity="0" x="0" y="0" width="32" height="32"></rect>
                <g id="github备份" transform="translate(3.000000, 3.000000)" fill="#333333">
                    <path d="M13,0 C5.8214,0 0,5.81562709 0,12.9871083 C0,18.7248127 3.7258,23.5923809 8.892,25.3092766 C9.542,25.428758 9.7786,25.0261577 9.7786,24.683298 C9.7786,24.3742048 9.7682,23.5586144 9.7604,22.4754896 C6.1438,23.2599109 5.382,20.7352171 5.382,20.7352171 C4.7918,19.2339074 3.939,18.8365019 3.939,18.8365019 C2.7586,18.0313011 4.0274,18.0468857 4.0274,18.0468857 C5.3326,18.1377954 6.019,19.3845578 6.019,19.3845578 C7.1786,21.368988 9.061,20.7949578 9.802,20.4624878 C9.919,19.6235206 10.257,19.0520878 10.6262,18.7274101 C7.7402,18.400135 4.7034,17.2858411 4.7034,12.3091812 C4.7034,10.890989 5.2104,9.73253895 6.0424,8.82344137 C5.9098,8.49616624 5.4626,7.17407861 6.1698,5.38705252 C6.1698,5.38705252 7.2618,5.03899801 9.7448,6.71952982 C10.7822,6.43121602 11.895,6.28835783 13,6.28316299 C14.105,6.28835783 15.2152,6.43121602 16.2552,6.71952982 C18.7382,5.03899801 19.8276,5.38705252 19.8276,5.38705252 C20.5374,7.17407861 20.0902,8.49616624 19.9576,8.82344137 C20.7896,9.73253895 21.294,10.890989 21.294,12.3091812 C21.294,17.2988282 18.2546,18.3949402 15.3582,18.7170205 C15.8262,19.1170234 16.2396,19.9118344 16.2396,21.1222329 C16.2396,22.8573106 16.224,24.2599183 16.224,24.6858954 C16.224,25.0339499 16.458,25.4365503 17.1184,25.3092766 C22.2794,23.5897835 26,18.7248127 26,12.9871083 C26,5.81562709 20.1786,0 13,0 Z" id="路径"></path>
                </g>
            </g>
        </g>
    </g>
</svg>