<?xml version="1.0" encoding="UTF-8"?>
<svg width="16px" height="16px" viewBox="0 0 16 16" version="1.1" xmlns="http://www.w3.org/2000/svg" xmlns:xlink="http://www.w3.org/1999/xlink">
    <title>旷视-16</title>
    <g id="页面-1" stroke="none" stroke-width="1" fill="none" fill-rule="evenodd">
        <g id="画板" transform="translate(-257.000000, -281.000000)">
            <g id="旷视-16" transform="translate(257.000000, 281.000000)">
                <rect id="矩形备份-13" fill="#D8D8D8" opacity="0" x="0" y="0" width="16" height="16"></rect>
                <g id="编组备份-3" transform="translate(1.500000, 1.500000)" fill-rule="nonzero">
                    <path d="M8.45541126,7.00450216 L7.84839827,7.00450216 L7.03082251,11.6418182 L5.58813853,11.6401732 L4.77056277,7.00285714 L4.17506494,7.00285714 L4.17506494,11.6401732 L3.0778355,11.6401732 C4.02207792,12.2142857 5.12917749,12.54329 6.3152381,12.54329 C7.49965368,12.54329 8.60839827,12.2126407 9.55264069,11.6401732 L8.45541126,11.6401732 L8.45541126,7.00450216 L8.45541126,7.00450216 Z" id="路径" fill="#0F58A3"></path>
                    <path d="M0.0723809524,6.3004329 C0.0723809524,8.3369697 1.04787879,10.1464935 2.55636364,11.2864935 L2.55636364,1.31601732 C1.04787879,2.45437229 0.0723809524,4.2638961 0.0723809524,6.3004329 Z" id="路径" fill="#0F58A3"></path>
                    <path d="M5.96320346,7.00450216 L6.68536797,7.00450216 L7.75792208,0.959047619 L9.55099567,0.959047619 C8.60675325,0.386580087 7.49965368,0.0559307359 6.3152381,0.0559307359 C5.13082251,0.0559307359 4.02372294,0.384935065 3.07948052,0.959047619 L4.88077922,0.959047619 L5.96320346,7.00450216 Z" id="路径" fill="#0F58A3"></path>
                    <path d="M12.5597403,6.3004329 C12.5597403,4.2638961 11.5842424,2.45437229 10.0757576,1.31437229 L10.0757576,11.2848485 C11.5842424,10.1448485 12.5597403,8.3369697 12.5597403,6.3004329 Z" id="路径" fill="#0F58A3"></path>
                    <path d="M9.55099567,0.959047619 L7.75792208,0.959047619 L6.68536797,7.00450216 L5.96320346,7.00450216 L4.88077922,0.959047619 L3.07948052,0.959047619 C2.89852814,1.06926407 2.72415584,1.18770563 2.55471861,1.31601732 L2.55471861,11.2864935 C2.72251082,11.4131602 2.89688312,11.5316017 3.0778355,11.6418182 L4.17506494,11.6418182 L4.17506494,7.00450216 L4.77056277,7.00450216 L5.58813853,11.6418182 L7.03082251,11.6434632 L7.84839827,7.00614719 L8.45541126,7.00614719 L8.45541126,11.6434632 L9.55264069,11.6434632 C9.73359307,11.5332468 9.90796537,11.4148052 10.0757576,11.2881385 L10.0757576,1.31766234 C9.90796537,1.18770563 9.73194805,1.06926407 9.55099567,0.959047619 Z" id="路径" fill="#FFFFFF"></path>
                </g>
            </g>
        </g>
    </g>
</svg>