<?xml version="1.0" encoding="UTF-8"?>
<svg width="32px" height="32px" viewBox="0 0 32 32" version="1.1" xmlns="http://www.w3.org/2000/svg" xmlns:xlink="http://www.w3.org/1999/xlink">
    <title>旷视-32</title>
    <g id="页面-1" stroke="none" stroke-width="1" fill="none" fill-rule="evenodd">
        <g id="画板" transform="translate(-257.000000, -161.000000)">
            <g id="旷视-32" transform="translate(257.000000, 161.000000)">
                <rect id="矩形备份-5" fill="#D8D8D8" opacity="0" x="0" y="0" width="32" height="32"></rect>
                <g id="编组备份" transform="translate(3.000000, 3.000000)" fill-rule="nonzero">
                    <path d="M16.9108225,14.0090043 L15.6967965,14.0090043 L14.061645,23.2836364 L11.1762771,23.2803463 L9.54112554,14.0057143 L8.35012987,14.0057143 L8.35012987,23.2803463 L6.155671,23.2803463 C8.04415584,24.4285714 10.258355,25.0865801 12.6304762,25.0865801 C14.9993074,25.0865801 17.2167965,24.4252814 19.1052814,23.2803463 L16.9108225,23.2803463 L16.9108225,14.0090043 L16.9108225,14.0090043 Z" id="路径" fill="#0F58A3"></path>
                    <path d="M0.144761905,12.6008658 C0.144761905,16.6739394 2.09575758,20.292987 5.11272727,22.572987 L5.11272727,2.63203463 C2.09575758,4.90874459 0.144761905,8.52779221 0.144761905,12.6008658 Z" id="路径" fill="#0F58A3"></path>
                    <path d="M11.9264069,14.0090043 L13.3707359,14.0090043 L15.5158442,1.91809524 L19.1019913,1.91809524 C17.2135065,0.773160173 14.9993074,0.111861472 12.6304762,0.111861472 C10.261645,0.111861472 8.04744589,0.76987013 6.15896104,1.91809524 L9.76155844,1.91809524 L11.9264069,14.0090043 Z" id="路径" fill="#0F58A3"></path>
                    <path d="M25.1194805,12.6008658 C25.1194805,8.52779221 23.1684848,4.90874459 20.1515152,2.62874459 L20.1515152,22.569697 C23.1684848,20.289697 25.1194805,16.6739394 25.1194805,12.6008658 Z" id="路径" fill="#0F58A3"></path>
                    <path d="M19.1019913,1.91809524 L15.5158442,1.91809524 L13.3707359,14.0090043 L11.9264069,14.0090043 L9.76155844,1.91809524 L6.15896104,1.91809524 C5.79705628,2.13852814 5.44831169,2.37541126 5.10943723,2.63203463 L5.10943723,22.572987 C5.44502165,22.8263203 5.79376623,23.0632035 6.155671,23.2836364 L8.35012987,23.2836364 L8.35012987,14.0090043 L9.54112554,14.0090043 L11.1762771,23.2836364 L14.061645,23.2869264 L15.6967965,14.0122944 L16.9108225,14.0122944 L16.9108225,23.2869264 L19.1052814,23.2869264 C19.4671861,23.0664935 19.8159307,22.8296104 20.1515152,22.5762771 L20.1515152,2.63532468 C19.8159307,2.37541126 19.4638961,2.13852814 19.1019913,1.91809524 Z" id="路径" fill="#FFFFFF"></path>
                </g>
            </g>
        </g>
    </g>
</svg>