<?xml version="1.0" encoding="UTF-8"?>
<svg width="24px" height="24px" viewBox="0 0 24 24" version="1.1" xmlns="http://www.w3.org/2000/svg" xmlns:xlink="http://www.w3.org/1999/xlink">
    <title>旷视-24</title>
    <g id="页面-1" stroke="none" stroke-width="1" fill="none" fill-rule="evenodd">
        <g id="画板" transform="translate(-257.000000, -223.000000)">
            <g id="旷视-24" transform="translate(257.000000, 223.000000)">
                <rect id="矩形备份-9" fill="#D8D8D8" opacity="0" x="0" y="0" width="24" height="24"></rect>
                <g id="编组备份-2" transform="translate(2.500000, 2.500000)" fill-rule="nonzero">
                    <path d="M12.6831169,10.5067532 L11.7725974,10.5067532 L10.5462338,17.4627273 L8.38220779,17.4602597 L7.15584416,10.5042857 L6.2625974,10.5042857 L6.2625974,17.4602597 L4.61675325,17.4602597 C6.03311688,18.3214286 7.69376623,18.8149351 9.47285714,18.8149351 C11.2494805,18.8149351 12.9125974,18.318961 14.328961,17.4602597 L12.6831169,17.4602597 L12.6831169,10.5067532 L12.6831169,10.5067532 Z" id="路径" fill="#0F58A3"></path>
                    <path d="M0.108571429,9.45064935 C0.108571429,12.5054545 1.57181818,15.2197403 3.83454545,16.9297403 L3.83454545,1.97402597 C1.57181818,3.68155844 0.108571429,6.39584416 0.108571429,9.45064935 Z" id="路径" fill="#0F58A3"></path>
                    <path d="M8.94480519,10.5067532 L10.0280519,10.5067532 L11.6368831,1.43857143 L14.3264935,1.43857143 C12.9101299,0.57987013 11.2494805,0.0838961039 9.47285714,0.0838961039 C7.69623377,0.0838961039 6.03558442,0.577402597 4.61922078,1.43857143 L7.32116883,1.43857143 L8.94480519,10.5067532 Z" id="路径" fill="#0F58A3"></path>
                    <path d="M18.8396104,9.45064935 C18.8396104,6.39584416 17.3763636,3.68155844 15.1136364,1.97155844 L15.1136364,16.9272727 C17.3763636,15.2172727 18.8396104,12.5054545 18.8396104,9.45064935 Z" id="路径" fill="#0F58A3"></path>
                    <path d="M14.3264935,1.43857143 L11.6368831,1.43857143 L10.0280519,10.5067532 L8.94480519,10.5067532 L7.32116883,1.43857143 L4.61922078,1.43857143 C4.34779221,1.6038961 4.08623377,1.78155844 3.83207792,1.97402597 L3.83207792,16.9297403 C4.08376623,17.1197403 4.34532468,17.2974026 4.61675325,17.4627273 L6.2625974,17.4627273 L6.2625974,10.5067532 L7.15584416,10.5067532 L8.38220779,17.4627273 L10.5462338,17.4651948 L11.7725974,10.5092208 L12.6831169,10.5092208 L12.6831169,17.4651948 L14.328961,17.4651948 C14.6003896,17.2998701 14.8619481,17.1222078 15.1136364,16.9322078 L15.1136364,1.97649351 C14.8619481,1.78155844 14.5979221,1.6038961 14.3264935,1.43857143 Z" id="路径" fill="#FFFFFF"></path>
                </g>
            </g>
        </g>
    </g>
</svg>