<?xml version="1.0" encoding="UTF-8"?>
<svg width="48px" height="48px" viewBox="0 0 48 48" version="1.1" xmlns="http://www.w3.org/2000/svg" xmlns:xlink="http://www.w3.org/1999/xlink">
    <title>旷视-48</title>
    <g id="页面-1" stroke="none" stroke-width="1" fill="none" fill-rule="evenodd">
        <g id="画板" transform="translate(-257.000000, -87.000000)">
            <g id="旷视-48" transform="translate(257.000000, 87.000000)">
                <rect id="矩形备份" fill="#D8D8D8" opacity="0" x="0" y="0" width="48" height="48"></rect>
                <g id="编组" transform="translate(5.000000, 5.000000)" fill-rule="nonzero">
                    <path d="M25.3662338,21.0135065 L23.5451948,21.0135065 L21.0924675,34.9254545 L16.7644156,34.9205195 L14.3116883,21.0085714 L12.5251948,21.0085714 L12.5251948,34.9205195 L9.23350649,34.9205195 C12.0662338,36.6428571 15.3875325,37.6298701 18.9457143,37.6298701 C22.498961,37.6298701 25.8251948,36.6379221 28.6579221,34.9205195 L25.3662338,34.9205195 L25.3662338,21.0135065 L25.3662338,21.0135065 Z" id="路径" fill="#0F58A3"></path>
                    <path d="M0.217142857,18.9012987 C0.217142857,25.0109091 3.14363636,30.4394805 7.66909091,33.8594805 L7.66909091,3.94805195 C3.14363636,7.36311688 0.217142857,12.7916883 0.217142857,18.9012987 Z" id="路径" fill="#0F58A3"></path>
                    <path d="M17.8896104,21.0135065 L20.0561039,21.0135065 L23.2737662,2.87714286 L28.652987,2.87714286 C25.8202597,1.15974026 22.498961,0.167792208 18.9457143,0.167792208 C15.3924675,0.167792208 12.0711688,1.15480519 9.23844156,2.87714286 L14.6423377,2.87714286 L17.8896104,21.0135065 Z" id="路径" fill="#0F58A3"></path>
                    <path d="M37.6792208,18.9012987 C37.6792208,12.7916883 34.7527273,7.36311688 30.2272727,3.94311688 L30.2272727,33.8545455 C34.7527273,30.4345455 37.6792208,25.0109091 37.6792208,18.9012987 Z" id="路径" fill="#0F58A3"></path>
                    <path d="M28.652987,2.87714286 L23.2737662,2.87714286 L20.0561039,21.0135065 L17.8896104,21.0135065 L14.6423377,2.87714286 L9.23844156,2.87714286 C8.69558442,3.20779221 8.17246753,3.56311688 7.66415584,3.94805195 L7.66415584,33.8594805 C8.16753247,34.2394805 8.69064935,34.5948052 9.23350649,34.9254545 L12.5251948,34.9254545 L12.5251948,21.0135065 L14.3116883,21.0135065 L16.7644156,34.9254545 L21.0924675,34.9303896 L23.5451948,21.0184416 L25.3662338,21.0184416 L25.3662338,34.9303896 L28.6579221,34.9303896 C29.2007792,34.5997403 29.7238961,34.2444156 30.2272727,33.8644156 L30.2272727,3.95298701 C29.7238961,3.56311688 29.1958442,3.20779221 28.652987,2.87714286 Z" id="路径" fill="#FFFFFF"></path>
                </g>
            </g>
        </g>
    </g>
</svg>